<svg width="1771" height="508" viewBox="0 0 1771 508" fill="none" xmlns="http://www.w3.org/2000/svg">
<path d="M35 314.622C-11.6667 287.679 -11.6667 220.321 35 193.378L311 34.0297C357.666 7.08671 416 40.7655 416 94.6515V413.349C416 467.235 357.666 500.913 311 473.97L35 314.622Z" fill="url(#paint0_linear_101_11)"/>
<path d="M314.622 473C287.679 519.666 220.321 519.666 193.378 473L34.0297 197C7.08664 150.333 40.7654 92 94.6514 92H413.348C467.235 92 500.913 150.333 473.97 197L314.622 473Z" fill="url(#paint1_linear_101_11)"/>
<path d="M193.378 35C220.321 -11.6666 287.679 -11.6666 314.622 35L473.971 311C500.914 357.666 467.235 416 413.349 416L94.6517 416C40.7656 416 7.08688 357.666 34.0299 311L193.378 35Z" fill="url(#paint2_linear_101_11)"/>
<path d="M473 193.378C519.667 220.321 519.667 287.678 473 314.622L197 473.97C150.333 500.913 92.0001 467.234 92.0001 413.348L92.0001 94.6512C92.0001 40.7652 150.333 7.08641 197 34.0294L473 193.378Z" fill="url(#paint3_linear_101_11)"/>
<rect x="92" y="92" width="324" height="324" rx="50" fill="black"/>
<path d="M197.26 152C201.622 152 205.481 154.828 206.795 158.987L253.277 306.096C253.445 306.629 253.94 306.992 254.5 306.992V306.992C255.06 306.992 255.555 306.63 255.723 306.096L302.301 158.982C303.617 154.825 307.474 152 311.834 152H338.006C344.866 152 349.689 158.749 347.467 165.239L284.467 349.239C283.082 353.283 279.28 356 275.006 356H234.089C229.817 356 226.016 353.285 224.63 349.243L161.541 165.243C159.315 158.753 164.138 152 171 152H197.26Z" fill="url(#paint4_linear_101_11)"/>
<path d="M751.512 198.636L693.35 365H641.361L583.199 198.636H631.938L666.489 317.669H668.222L702.664 198.636H751.512ZM821.263 268.821V365H775.124V198.636H819.097V227.988H821.047C824.729 218.313 830.903 210.659 839.568 205.027C848.233 199.322 858.739 196.47 871.086 196.47C882.639 196.47 892.712 198.997 901.304 204.052C909.897 209.106 916.576 216.327 921.342 225.714C926.107 235.028 928.49 246.148 928.49 259.073V365H882.35V267.305C882.422 257.124 879.823 249.181 874.552 243.477C869.281 237.7 862.024 234.812 852.782 234.812C846.572 234.812 841.084 236.148 836.319 238.819C831.625 241.491 827.943 245.39 825.271 250.517C822.672 255.571 821.336 261.673 821.263 268.821ZM964.855 365V198.636H1010.99V365H964.855ZM988.033 177.191C981.174 177.191 975.289 174.917 970.379 170.368C965.541 165.746 963.122 160.223 963.122 153.796C963.122 147.442 965.541 141.99 970.379 137.441C975.289 132.82 981.174 130.51 988.033 130.51C994.893 130.51 1000.74 132.82 1005.58 137.441C1010.49 141.99 1012.94 147.442 1012.94 153.796C1012.94 160.223 1010.49 165.746 1005.58 170.368C1000.74 174.917 994.893 177.191 988.033 177.191ZM1123.12 368.249C1106.08 368.249 1091.42 364.639 1079.15 357.418C1066.95 350.125 1057.56 340.017 1050.99 327.092C1044.49 314.167 1041.24 299.292 1041.24 282.468C1041.24 265.427 1044.53 250.481 1051.1 237.628C1057.74 224.703 1067.16 214.63 1079.37 207.409C1091.57 200.117 1106.08 196.47 1122.91 196.47C1137.42 196.47 1150.13 199.106 1161.03 204.377C1171.93 209.648 1180.56 217.049 1186.92 226.58C1193.27 236.111 1196.77 247.303 1197.42 260.156H1153.88C1152.65 251.853 1149.41 245.173 1144.13 240.119C1138.94 234.992 1132.11 232.429 1123.66 232.429C1116.52 232.429 1110.27 234.379 1104.93 238.278C1099.66 242.105 1095.54 247.701 1092.58 255.066C1089.62 262.431 1088.14 271.348 1088.14 281.818C1088.14 292.433 1089.58 301.458 1092.47 308.896C1095.43 316.333 1099.58 322.001 1104.93 325.9C1110.27 329.799 1116.52 331.749 1123.66 331.749C1128.94 331.749 1133.66 330.666 1137.85 328.5C1142.11 326.333 1145.61 323.192 1148.36 319.077C1151.17 314.889 1153.02 309.87 1153.88 304.022H1197.42C1196.7 316.73 1193.23 327.922 1187.03 337.598C1180.89 347.201 1172.4 354.711 1161.57 360.126C1150.74 365.542 1137.92 368.249 1123.12 368.249ZM1226.96 365V198.636H1273.1V365H1226.96ZM1250.14 177.191C1243.28 177.191 1237.4 174.917 1232.49 170.368C1227.65 165.746 1225.23 160.223 1225.23 153.796C1225.23 147.442 1227.65 141.99 1232.49 137.441C1237.4 132.82 1243.28 130.51 1250.14 130.51C1257 130.51 1262.85 132.82 1267.69 137.441C1272.6 141.99 1275.05 147.442 1275.05 153.796C1275.05 160.223 1272.6 165.746 1267.69 170.368C1262.85 174.917 1257 177.191 1250.14 177.191ZM1337.03 367.816C1329.89 367.816 1323.75 365.289 1318.62 360.234C1313.57 355.108 1311.04 348.97 1311.04 341.822C1311.04 334.746 1313.57 328.68 1318.62 323.626C1323.75 318.571 1329.89 316.044 1337.03 316.044C1343.97 316.044 1350.03 318.571 1355.23 323.626C1360.43 328.68 1363.03 334.746 1363.03 341.822C1363.03 346.587 1361.8 350.956 1359.35 354.927C1356.96 358.826 1353.82 361.967 1349.92 364.35C1346.02 366.661 1341.73 367.816 1337.03 367.816ZM1507.59 294.165V198.636H1553.73V365H1509.44V334.782H1507.7C1503.95 344.529 1497.7 352.364 1488.97 358.285C1480.3 364.206 1469.72 367.166 1457.23 367.166C1446.11 367.166 1436.33 364.639 1427.88 359.585C1419.43 354.53 1412.82 347.346 1408.06 338.031C1403.36 328.716 1400.98 317.56 1400.91 304.563V198.636H1447.05V296.332C1447.12 306.152 1449.76 313.914 1454.96 319.618C1460.16 325.323 1467.12 328.175 1475.86 328.175C1481.42 328.175 1486.62 326.911 1491.46 324.384C1496.29 321.784 1500.19 317.958 1503.15 312.903C1506.19 307.849 1507.67 301.603 1507.59 294.165ZM1729.06 246.076L1686.82 248.675C1686.1 245.065 1684.55 241.816 1682.16 238.928C1679.78 235.967 1676.64 233.62 1672.74 231.887C1668.91 230.082 1664.33 229.18 1658.98 229.18C1651.84 229.18 1645.81 230.696 1640.9 233.729C1635.99 236.689 1633.53 240.661 1633.53 245.643C1633.53 249.614 1635.12 252.972 1638.3 255.716C1641.47 258.459 1646.93 260.662 1654.65 262.322L1684.76 268.388C1700.94 271.709 1712.99 277.053 1720.94 284.418C1728.88 291.783 1732.85 301.458 1732.85 313.445C1732.85 324.348 1729.64 333.915 1723.21 342.147C1716.86 350.378 1708.12 356.805 1697 361.426C1685.95 365.975 1673.21 368.249 1658.77 368.249C1636.74 368.249 1619.2 363.664 1606.13 354.494C1593.13 345.252 1585.51 332.688 1583.28 316.802L1628.66 314.419C1630.03 321.135 1633.35 326.261 1638.62 329.799C1643.89 333.265 1650.64 334.998 1658.88 334.998C1666.96 334.998 1673.46 333.446 1678.37 330.341C1683.35 327.164 1685.88 323.084 1685.95 318.102C1685.88 313.914 1684.11 310.484 1680.65 307.812C1677.18 305.069 1671.84 302.975 1664.62 301.531L1635.81 295.79C1619.56 292.541 1607.47 286.909 1599.52 278.894C1591.65 270.879 1587.72 260.662 1587.72 248.242C1587.72 237.556 1590.61 228.349 1596.38 220.623C1602.23 212.897 1610.43 206.94 1620.97 202.752C1631.58 198.564 1644 196.47 1658.23 196.47C1679.24 196.47 1695.77 200.911 1707.83 209.792C1719.96 218.674 1727.04 230.768 1729.06 246.076Z" fill="white"/>
<defs>
<linearGradient id="paint0_linear_101_11" x1="-70" y1="254" x2="578" y2="254" gradientUnits="userSpaceOnUse">
<stop stop-color="#9F00FF"/>
<stop offset="1" stop-color="#2B0046"/>
</linearGradient>
<linearGradient id="paint1_linear_101_11" x1="254" y1="578" x2="254" y2="-69.9999" gradientUnits="userSpaceOnUse">
<stop stop-color="#9F00FF"/>
<stop offset="1" stop-color="#2B0046"/>
</linearGradient>
<linearGradient id="paint2_linear_101_11" x1="254" y1="-70" x2="254" y2="578" gradientUnits="userSpaceOnUse">
<stop stop-color="#2B0046"/>
<stop offset="0.427083" stop-color="#2B0046"/>
<stop offset="1" stop-color="#2B0046"/>
</linearGradient>
<linearGradient id="paint3_linear_101_11" x1="578" y1="254" x2="-69.9998" y2="254" gradientUnits="userSpaceOnUse">
<stop stop-color="#9F00FF"/>
<stop offset="1" stop-color="#2B0046"/>
</linearGradient>
<linearGradient id="paint4_linear_101_11" x1="254.5" y1="152" x2="254.5" y2="356" gradientUnits="userSpaceOnUse">
<stop stop-color="white"/>
<stop offset="1" stop-color="white"/>
</linearGradient>
</defs>
</svg>
