<svg width="508" height="508" viewBox="0 0 508 508" fill="none" xmlns="http://www.w3.org/2000/svg">
<path d="M34.9999 314.622C-11.6667 287.679 -11.6667 220.321 34.9999 193.378L311 34.0298C357.666 7.08674 416 40.7655 416 94.6516V413.349C416 467.235 357.666 500.913 311 473.97L34.9999 314.622Z" fill="url(#paint0_linear_1_92)"/>
<path d="M314.622 473C287.679 519.666 220.321 519.666 193.378 473L34.0296 197C7.08661 150.333 40.7654 92 94.6514 92H413.348C467.234 92 500.913 150.333 473.97 197L314.622 473Z" fill="url(#paint1_linear_1_92)"/>
<path d="M193.378 35C220.321 -11.6666 287.679 -11.6666 314.622 35L473.97 311C500.913 357.666 467.235 416 413.349 416L94.6516 416C40.7656 416 7.08679 357.666 34.0298 311L193.378 35Z" fill="url(#paint2_linear_1_92)"/>
<path d="M473 193.378C519.666 220.321 519.666 287.678 473 314.622L197 473.97C150.333 500.913 92 467.234 92 413.348L92 94.6512C92 40.7652 150.333 7.08641 197 34.0294L473 193.378Z" fill="url(#paint3_linear_1_92)"/>
<rect x="92" y="92" width="324" height="324" rx="50" fill="black"/>
<path d="M197.26 152C201.622 152 205.481 154.828 206.795 158.987L253.277 306.096C253.445 306.629 253.94 306.992 254.5 306.992V306.992C255.06 306.992 255.554 306.63 255.723 306.096L302.301 158.982C303.617 154.825 307.474 152 311.834 152H338.006C344.866 152 349.689 158.749 347.467 165.239L284.467 349.239C283.082 353.283 279.28 356 275.006 356H234.089C229.817 356 226.016 353.285 224.63 349.243L161.541 165.243C159.315 158.753 164.138 152 171 152H197.26Z" fill="url(#paint4_linear_1_92)"/>
<defs>
<linearGradient id="paint0_linear_1_92" x1="-70.0001" y1="254" x2="578" y2="254" gradientUnits="userSpaceOnUse">
<stop stop-color="#9F00FF"/>
<stop offset="1" stop-color="#2B0046"/>
</linearGradient>
<linearGradient id="paint1_linear_1_92" x1="254" y1="578" x2="254" y2="-69.9999" gradientUnits="userSpaceOnUse">
<stop stop-color="#9F00FF"/>
<stop offset="1" stop-color="#2B0046"/>
</linearGradient>
<linearGradient id="paint2_linear_1_92" x1="254" y1="-70" x2="254" y2="578" gradientUnits="userSpaceOnUse">
<stop stop-color="#2B0046"/>
<stop offset="0.427083" stop-color="#2B0046"/>
<stop offset="1" stop-color="#2B0046"/>
</linearGradient>
<linearGradient id="paint3_linear_1_92" x1="578" y1="254" x2="-69.9999" y2="254" gradientUnits="userSpaceOnUse">
<stop stop-color="#9F00FF"/>
<stop offset="1" stop-color="#2B0046"/>
</linearGradient>
<linearGradient id="paint4_linear_1_92" x1="254.5" y1="152" x2="254.5" y2="356" gradientUnits="userSpaceOnUse">
<stop stop-color="white"/>
<stop offset="1" stop-color="white"/>
</linearGradient>
</defs>
</svg>
