<svg width="1691" height="508" viewBox="0 0 1691 508" fill="none" xmlns="http://www.w3.org/2000/svg">
<path d="M35 314.622C-11.6667 287.679 -11.6667 220.321 35 193.378L311 34.0297C357.666 7.08671 416 40.7655 416 94.6515V413.349C416 467.235 357.666 500.913 311 473.97L35 314.622Z" fill="url(#paint0_linear_101_11)"/>
<path d="M314.622 473C287.679 519.666 220.321 519.666 193.378 473L34.0297 197C7.08664 150.333 40.7654 92 94.6514 92H413.348C467.235 92 500.913 150.333 473.97 197L314.622 473Z" fill="url(#paint1_linear_101_11)"/>
<path d="M193.378 35C220.321 -11.6666 287.679 -11.6666 314.622 35L473.971 311C500.914 357.666 467.235 416 413.349 416L94.6517 416C40.7656 416 7.08688 357.666 34.0299 311L193.378 35Z" fill="url(#paint2_linear_101_11)"/>
<path d="M473 193.378C519.667 220.321 519.667 287.678 473 314.622L197 473.97C150.333 500.913 92.0001 467.234 92.0001 413.348L92.0001 94.6512C92.0001 40.7652 150.333 7.08641 197 34.0294L473 193.378Z" fill="url(#paint3_linear_101_11)"/>
<rect x="92" y="92" width="324" height="324" rx="50" fill="black"/>
<path d="M197.26 152C201.622 152 205.481 154.828 206.795 158.987L253.277 306.096C253.445 306.629 253.94 306.992 254.5 306.992V306.992C255.06 306.992 255.555 306.63 255.723 306.096L302.301 158.982C303.617 154.825 307.474 152 311.834 152H338.006C344.866 152 349.689 158.749 347.467 165.239L284.467 349.239C283.082 353.283 279.28 356 275.006 356H234.089C229.817 356 226.016 353.285 224.63 349.243L161.541 165.243C159.315 158.753 164.138 152 171 152H197.26Z" fill="url(#paint4_linear_101_11)"/>
<path d="M742.979 192.818L687.677 351H638.245L582.943 192.818H629.286L662.137 305.996H663.785L696.533 192.818H742.979ZM809.3 259.551V351H765.429V192.818H807.24V220.727H809.094C812.595 211.527 818.465 204.249 826.704 198.894C834.942 193.47 844.932 190.759 856.672 190.759C867.657 190.759 877.234 193.161 885.404 197.967C893.574 202.773 899.925 209.639 904.456 218.564C908.987 227.42 911.253 237.993 911.253 250.283V351H867.382V258.109C867.451 248.429 864.979 240.877 859.967 235.453C854.955 229.961 848.056 227.214 839.268 227.214C833.363 227.214 828.146 228.485 823.614 231.025C819.152 233.565 815.65 237.272 813.11 242.147C810.638 246.953 809.368 252.754 809.3 259.551ZM945.829 351V192.818H989.7V351H945.829ZM967.868 172.428C961.345 172.428 955.75 170.265 951.081 165.94C946.482 161.546 944.182 156.294 944.182 150.183C944.182 144.142 946.482 138.958 951.081 134.633C955.75 130.239 961.345 128.042 967.868 128.042C974.39 128.042 979.951 130.239 984.551 134.633C989.22 138.958 991.554 144.142 991.554 150.183C991.554 156.294 989.22 161.546 984.551 165.94C979.951 170.265 974.39 172.428 967.868 172.428ZM1096.31 354.089C1080.11 354.089 1066.17 350.657 1054.5 343.791C1042.9 336.857 1033.97 327.245 1027.73 314.956C1021.55 302.667 1018.46 288.524 1018.46 272.527C1018.46 256.324 1021.58 242.113 1027.83 229.892C1034.15 217.603 1043.11 208.025 1054.71 201.16C1066.31 194.226 1080.11 190.759 1096.11 190.759C1109.91 190.759 1121.99 193.264 1132.36 198.276C1142.72 203.288 1150.93 210.325 1156.97 219.388C1163.01 228.45 1166.34 239.092 1166.96 251.312H1125.56C1124.39 243.417 1121.3 237.067 1116.29 232.261C1111.35 227.386 1104.86 224.949 1096.83 224.949C1090.03 224.949 1084.09 226.803 1079.01 230.51C1074 234.149 1070.09 239.469 1067.27 246.472C1064.46 253.475 1063.05 261.954 1063.05 271.909C1063.05 282.001 1064.42 290.583 1067.17 297.655C1069.98 304.726 1073.93 310.116 1079.01 313.823C1084.09 317.531 1090.03 319.384 1096.83 319.384C1101.84 319.384 1106.34 318.354 1110.32 316.295C1114.37 314.235 1117.7 311.249 1120.31 307.335C1122.99 303.353 1124.74 298.582 1125.56 293.021H1166.96C1166.27 305.104 1162.98 315.746 1157.07 324.945C1151.24 334.076 1143.17 341.217 1132.87 346.366C1122.57 351.515 1110.39 354.089 1096.31 354.089ZM1195.05 351V192.818H1238.92V351H1195.05ZM1217.09 172.428C1210.56 172.428 1204.97 170.265 1200.3 165.94C1195.7 161.546 1193.4 156.294 1193.4 150.183C1193.4 144.142 1195.7 138.958 1200.3 134.633C1204.97 130.239 1210.56 128.042 1217.09 128.042C1223.61 128.042 1229.17 130.239 1233.77 134.633C1238.44 138.958 1240.77 144.142 1240.77 150.183C1240.77 156.294 1238.44 161.546 1233.77 165.94C1229.17 170.265 1223.61 172.428 1217.09 172.428ZM1299.7 353.678C1292.91 353.678 1287.07 351.275 1282.2 346.469C1277.39 341.594 1274.99 335.759 1274.99 328.962C1274.99 322.233 1277.39 316.466 1282.2 311.661C1287.07 306.855 1292.91 304.452 1299.7 304.452C1306.3 304.452 1312.06 306.855 1317.01 311.661C1321.95 316.466 1324.42 322.233 1324.42 328.962C1324.42 333.493 1323.25 337.647 1320.92 341.423C1318.65 345.13 1315.67 348.116 1311.96 350.382C1308.25 352.579 1304.17 353.678 1299.7 353.678ZM1461.88 283.649V192.818H1505.75V351H1463.63V322.268H1461.98C1458.41 331.536 1452.47 338.985 1444.16 344.615C1435.93 350.245 1425.87 353.06 1413.99 353.06C1403.42 353.06 1394.11 350.657 1386.08 345.851C1378.05 341.045 1371.77 334.214 1367.24 325.357C1362.77 316.501 1360.51 305.893 1360.44 293.536V192.818H1404.31V285.709C1404.38 295.046 1406.88 302.426 1411.83 307.85C1416.77 313.274 1423.4 315.986 1431.7 315.986C1436.99 315.986 1441.93 314.784 1446.53 312.381C1451.13 309.91 1454.84 306.271 1457.65 301.465C1460.54 296.659 1461.95 290.721 1461.88 283.649ZM1672.45 237.925L1632.29 240.396C1631.6 236.964 1630.13 233.874 1627.86 231.128C1625.59 228.313 1622.61 226.082 1618.9 224.434C1615.26 222.718 1610.9 221.859 1605.82 221.859C1599.02 221.859 1593.29 223.301 1588.62 226.185C1583.95 229 1581.62 232.776 1581.62 237.513C1581.62 241.289 1583.13 244.481 1586.15 247.09C1589.17 249.699 1594.36 251.793 1601.7 253.372L1630.33 259.139C1645.71 262.297 1657.18 267.378 1664.73 274.381C1672.28 281.384 1676.06 290.583 1676.06 301.98C1676.06 312.347 1673 321.444 1666.89 329.271C1660.85 337.097 1652.54 343.208 1641.97 347.602C1631.46 351.927 1619.35 354.089 1605.62 354.089C1584.68 354.089 1567.99 349.73 1555.57 341.011C1543.21 332.223 1535.96 320.277 1533.84 305.173L1576.99 302.907C1578.29 309.292 1581.45 314.166 1586.46 317.531C1591.47 320.826 1597.89 322.474 1605.72 322.474C1613.41 322.474 1619.59 320.998 1624.26 318.045C1628.99 315.025 1631.4 311.146 1631.46 306.408C1631.4 302.426 1629.71 299.165 1626.42 296.625C1623.12 294.016 1618.04 292.025 1611.18 290.652L1583.78 285.194C1568.34 282.104 1556.84 276.749 1549.28 269.129C1541.8 261.508 1538.06 251.793 1538.06 239.984C1538.06 229.823 1540.8 221.07 1546.3 213.724C1551.86 206.378 1559.65 200.714 1569.67 196.732C1579.77 192.75 1591.58 190.759 1605.1 190.759C1625.08 190.759 1640.8 194.981 1652.27 203.425C1663.8 211.87 1670.53 223.37 1672.45 237.925Z" fill="white"/>
<defs>
<linearGradient id="paint0_linear_101_11" x1="-70" y1="254" x2="578" y2="254" gradientUnits="userSpaceOnUse">
<stop stop-color="#9F00FF"/>
<stop offset="1" stop-color="#2B0046"/>
</linearGradient>
<linearGradient id="paint1_linear_101_11" x1="254" y1="578" x2="254" y2="-69.9999" gradientUnits="userSpaceOnUse">
<stop stop-color="#9F00FF"/>
<stop offset="1" stop-color="#2B0046"/>
</linearGradient>
<linearGradient id="paint2_linear_101_11" x1="254" y1="-70" x2="254" y2="578" gradientUnits="userSpaceOnUse">
<stop stop-color="#2B0046"/>
<stop offset="0.427083" stop-color="#2B0046"/>
<stop offset="1" stop-color="#2B0046"/>
</linearGradient>
<linearGradient id="paint3_linear_101_11" x1="578" y1="254" x2="-69.9998" y2="254" gradientUnits="userSpaceOnUse">
<stop stop-color="#9F00FF"/>
<stop offset="1" stop-color="#2B0046"/>
</linearGradient>
<linearGradient id="paint4_linear_101_11" x1="254.5" y1="152" x2="254.5" y2="356" gradientUnits="userSpaceOnUse">
<stop stop-color="white"/>
<stop offset="1" stop-color="white"/>
</linearGradient>
</defs>
</svg>
