<svg width="1631" height="508" viewBox="0 0 1631 508" fill="none" xmlns="http://www.w3.org/2000/svg">
<path d="M35 314.622C-11.6667 287.679 -11.6667 220.321 35 193.378L311 34.0298C357.666 7.08673 416 40.7655 416 94.6516V413.349C416 467.235 357.666 500.913 311 473.97L35 314.622Z" fill="url(#paint0_linear_1_92)"/>
<path d="M314.622 473C287.679 519.666 220.321 519.666 193.378 473L34.0297 197C7.08664 150.333 40.7654 92 94.6514 92H413.348C467.234 92 500.913 150.333 473.97 197L314.622 473Z" fill="url(#paint1_linear_1_92)"/>
<path d="M193.378 35C220.321 -11.6666 287.679 -11.6666 314.622 35L473.971 311C500.914 357.666 467.235 416 413.349 416L94.6517 416C40.7656 416 7.08688 357.666 34.0299 311L193.378 35Z" fill="url(#paint2_linear_1_92)"/>
<path d="M473 193.378C519.667 220.321 519.667 287.678 473 314.622L197 473.97C150.333 500.913 92.0001 467.234 92.0001 413.348L92.0001 94.6512C92.0001 40.7652 150.333 7.0864 197 34.0294L473 193.378Z" fill="url(#paint3_linear_1_92)"/>
<rect x="92" y="92" width="324" height="324" rx="50" fill="black"/>
<path d="M197.26 152C201.622 152 205.481 154.828 206.795 158.987L253.277 306.096C253.445 306.629 253.94 306.992 254.5 306.992C255.06 306.992 255.555 306.63 255.723 306.096L302.301 158.982C303.617 154.825 307.474 152 311.834 152H338.006C344.866 152 349.689 158.749 347.467 165.239L284.467 349.239C283.082 353.283 279.28 356 275.006 356H234.089C229.817 356 226.016 353.285 224.63 349.243L161.541 165.243C159.315 158.753 164.138 152 171 152H197.26Z" fill="url(#paint4_linear_1_92)"/>
<path d="M597.216 365V143.909H643.205V227.034H644.608C646.623 222.572 649.538 218.038 653.352 213.432C657.239 208.754 662.277 204.867 668.466 201.773C674.727 198.606 682.5 197.023 691.784 197.023C703.875 197.023 715.03 200.189 725.25 206.523C735.47 212.784 743.638 222.248 749.756 234.915C755.873 247.509 758.932 263.307 758.932 282.307C758.932 300.803 755.945 316.42 749.972 329.159C744.07 341.826 736.009 351.434 725.79 357.983C715.642 364.46 704.271 367.699 691.676 367.699C682.752 367.699 675.159 366.223 668.898 363.273C662.708 360.322 657.634 356.616 653.676 352.153C649.718 347.619 646.695 343.049 644.608 338.443H642.557V365H597.216ZM642.233 282.091C642.233 291.951 643.6 300.551 646.335 307.892C649.07 315.233 653.028 320.955 658.21 325.057C663.392 329.087 669.689 331.102 677.102 331.102C684.587 331.102 690.92 329.051 696.102 324.949C701.284 320.775 705.206 315.017 707.869 307.676C710.604 300.263 711.972 291.735 711.972 282.091C711.972 272.519 710.64 264.098 707.977 256.83C705.314 249.561 701.392 243.875 696.21 239.773C691.028 235.67 684.659 233.619 677.102 233.619C669.617 233.619 663.284 235.598 658.102 239.557C652.992 243.515 649.07 249.129 646.335 256.398C643.6 263.667 642.233 272.231 642.233 282.091ZM836.902 368.131C826.322 368.131 816.894 366.295 808.618 362.625C800.341 358.883 793.792 353.377 788.97 346.108C784.22 338.767 781.845 329.627 781.845 318.688C781.845 309.475 783.536 301.739 786.919 295.477C790.302 289.216 794.908 284.178 800.737 280.364C806.567 276.549 813.188 273.67 820.601 271.727C828.086 269.784 835.93 268.417 844.135 267.625C853.779 266.617 861.552 265.682 867.453 264.818C873.355 263.883 877.637 262.515 880.3 260.716C882.963 258.917 884.294 256.254 884.294 252.727V252.08C884.294 245.242 882.135 239.953 877.817 236.21C873.571 232.468 867.525 230.597 859.68 230.597C851.404 230.597 844.819 232.432 839.925 236.102C835.031 239.701 831.792 244.235 830.209 249.705L787.675 246.25C789.834 236.174 794.08 227.466 800.413 220.125C806.747 212.712 814.915 207.027 824.919 203.068C834.995 199.038 846.654 197.023 859.896 197.023C869.108 197.023 877.925 198.102 886.345 200.261C894.838 202.42 902.358 205.767 908.908 210.301C915.529 214.835 920.747 220.665 924.561 227.79C928.375 234.843 930.283 243.299 930.283 253.159V365H886.669V342.006H885.374C882.711 347.188 879.148 351.758 874.686 355.716C870.224 359.602 864.862 362.661 858.601 364.892C852.339 367.051 845.107 368.131 836.902 368.131ZM850.072 336.392C856.838 336.392 862.811 335.061 867.993 332.398C873.175 329.663 877.241 325.992 880.192 321.386C883.143 316.78 884.618 311.562 884.618 305.733V288.136C883.179 289.072 881.199 289.936 878.68 290.727C876.233 291.447 873.463 292.131 870.368 292.778C867.273 293.354 864.179 293.894 861.084 294.398C857.989 294.83 855.182 295.225 852.663 295.585C847.266 296.377 842.552 297.636 838.521 299.364C834.491 301.091 831.36 303.43 829.129 306.381C826.898 309.259 825.783 312.858 825.783 317.176C825.783 323.438 828.05 328.223 832.584 331.534C837.19 334.773 843.019 336.392 850.072 336.392ZM1072.3 294.398V199.182H1118.29V365H1074.13V334.881H1072.4C1068.66 344.597 1062.44 352.405 1053.73 358.307C1045.09 364.208 1034.55 367.159 1022.1 367.159C1011.01 367.159 1001.26 364.64 992.842 359.602C984.422 354.564 977.837 347.403 973.087 338.119C968.409 328.835 966.034 317.716 965.962 304.761V199.182H1011.95V296.557C1012.02 306.345 1014.65 314.081 1019.83 319.767C1025.01 325.453 1031.96 328.295 1040.67 328.295C1046.21 328.295 1051.39 327.036 1056.21 324.517C1061.03 321.926 1064.92 318.112 1067.87 313.074C1070.89 308.036 1072.37 301.811 1072.3 294.398ZM1243.27 199.182V233.727H1143.41V199.182H1243.27ZM1166.08 159.455H1212.07V314.045C1212.07 318.292 1212.72 321.602 1214.01 323.977C1215.31 326.28 1217.11 327.9 1219.41 328.835C1221.79 329.771 1224.52 330.239 1227.62 330.239C1229.78 330.239 1231.93 330.059 1234.09 329.699C1236.25 329.267 1237.91 328.943 1239.06 328.727L1246.29 362.949C1243.99 363.669 1240.75 364.496 1236.58 365.432C1232.4 366.439 1227.33 367.051 1221.36 367.267C1210.27 367.699 1200.56 366.223 1192.21 362.841C1183.93 359.458 1177.49 354.205 1172.88 347.08C1168.28 339.955 1166.01 330.958 1166.08 320.091V159.455ZM1273.23 365V199.182H1319.22V365H1273.23ZM1296.33 177.807C1289.49 177.807 1283.63 175.54 1278.73 171.006C1273.91 166.4 1271.5 160.894 1271.5 154.489C1271.5 148.155 1273.91 142.722 1278.73 138.188C1283.63 133.581 1289.49 131.278 1296.33 131.278C1303.17 131.278 1309 133.581 1313.82 138.188C1318.71 142.722 1321.16 148.155 1321.16 154.489C1321.16 160.894 1318.71 166.4 1313.82 171.006C1309 175.54 1303.17 177.807 1296.33 177.807ZM1444.25 199.182V233.727H1344.4V199.182H1444.25ZM1367.07 159.455H1413.06V314.045C1413.06 318.292 1413.7 321.602 1415 323.977C1416.29 326.28 1418.09 327.9 1420.4 328.835C1422.77 329.771 1425.51 330.239 1428.6 330.239C1430.76 330.239 1432.92 330.059 1435.08 329.699C1437.24 329.267 1438.89 328.943 1440.04 328.727L1447.28 362.949C1444.97 363.669 1441.74 364.496 1437.56 365.432C1433.39 366.439 1428.31 367.051 1422.34 367.267C1411.26 367.699 1401.54 366.223 1393.19 362.841C1384.92 359.458 1378.47 354.205 1373.87 347.08C1369.26 339.955 1366.99 330.958 1367.07 320.091V159.455ZM1473.35 365V337.58L1554.53 237.074V235.886H1476.15V199.182H1609.91V229.085L1533.69 327.108V328.295H1612.72V365H1473.35Z" fill="white"/>
<defs>
<linearGradient id="paint0_linear_1_92" x1="-70" y1="254" x2="578" y2="254" gradientUnits="userSpaceOnUse">
<stop stop-color="#9F00FF"/>
<stop offset="1" stop-color="#2B0046"/>
</linearGradient>
<linearGradient id="paint1_linear_1_92" x1="254" y1="578" x2="254" y2="-69.9999" gradientUnits="userSpaceOnUse">
<stop stop-color="#9F00FF"/>
<stop offset="1" stop-color="#2B0046"/>
</linearGradient>
<linearGradient id="paint2_linear_1_92" x1="254" y1="-70" x2="254" y2="578" gradientUnits="userSpaceOnUse">
<stop stop-color="#2B0046"/>
<stop offset="0.427083" stop-color="#2B0046"/>
<stop offset="1" stop-color="#2B0046"/>
</linearGradient>
<linearGradient id="paint3_linear_1_92" x1="578" y1="254" x2="-69.9998" y2="254" gradientUnits="userSpaceOnUse">
<stop stop-color="#9F00FF"/>
<stop offset="1" stop-color="#2B0046"/>
</linearGradient>
<linearGradient id="paint4_linear_1_92" x1="254.5" y1="152" x2="254.5" y2="356" gradientUnits="userSpaceOnUse">
<stop stop-color="white"/>
<stop offset="1" stop-color="white"/>
</linearGradient>
</defs>
</svg>
