<!DOCTYPE svg PUBLIC "-//W3C//DTD SVG 1.1//EN" "http://www.w3.org/Graphics/SVG/1.1/DTD/svg11.dtd">

<svg version="1.1" xmlns="http://www.w3.org/2000/svg" xmlns:xlink="http://www.w3.org/1999/xlink" width="80px" height="80px" viewBox="0,0,256,256"><g fill="#047857" fill-rule="nonzero" stroke="none" stroke-width="1" stroke-linecap="butt" stroke-linejoin="none" stroke-miterlimit="10" stroke-dasharray="" stroke-dashoffset="0" font-family="none" font-weight="none" font-size="none" text-anchor="none" style="mix-blend-mode: normal"><path transform="scale(3.2,3.2)" d="M72,17c1.09375,0 2,0.90625 2,2v35c0,1.09375 -0.90625,2 -2,2h-17v4h3c2.19922,0 4,1.80078 4,4v2h-26v-2c0,-2.19922 1.80078,-4 4,-4h3v-4h-17c-1.09375,0 -2,-0.90625 -2,-2v-35c0,-1.09375 0.90625,-2 2,-2zM22,19v2h-13c-0.56641,0 -1,0.43359 -1,1v41c0,0.56641 0.43359,1 1,1h1v-4h14v4h1c0.56641,0 1,-0.43359 1,-1v-5h2v5c0,1.64453 -1.35547,3 -3,3h-16c-1.64453,0 -3,-1.35547 -3,-3v-41c0,-1.64453 1.35547,-3 3,-3zM22,28v2h-10v-2zM22,32v2h-10v-2zM22,36v2h-10v-2zM19,45c0,1.10547 -0.89453,2 -2,2c-1.10547,0 -2,-0.89453 -2,-2c0,-1.10547 0.89453,-2 2,-2c1.10547,0 2,0.89453 2,2z" id="strokeMainSVG" stroke="#047857" stroke-linejoin="round"></path><g transform="scale(3.2,3.2)" stroke="none" stroke-linejoin="miter"><path d="M26,17c-1.09375,0 -2,0.90625 -2,2v35c0,1.09375 0.90625,2 2,2h17v4h-3c-2.19922,0 -4,1.80078 -4,4v2h26v-2c0,-2.19922 -1.80078,-4 -4,-4h-3v-4h17c1.09375,0 2,-0.90625 2,-2v-35c0,-1.09375 -0.90625,-2 -2,-2zM9,19c-1.64453,0 -3,1.35547 -3,3v41c0,1.64453 1.35547,3 3,3h16c1.64453,0 3,-1.35547 3,-3v-5h-2v5c0,0.56641 -0.43359,1 -1,1h-1v-4h-14v4h-1c-0.56641,0 -1,-0.43359 -1,-1v-41c0,-0.56641 0.43359,-1 1,-1h13v-2zM26,19h46v35h-46zM12,28v2h10v-2zM12,32v2h10v-2zM12,36v2h10v-2zM17,43c-1.10547,0 -2,0.89453 -2,2c0,1.10547 0.89453,2 2,2c1.10547,0 2,-0.89453 2,-2c0,-1.10547 -0.89453,-2 -2,-2zM29,49c-0.55078,0 -1,0.44922 -1,1c0,0.55078 0.44922,1 1,1c0.55078,0 1,-0.44922 1,-1c0,-0.55078 -0.44922,-1 -1,-1zM33,49c-0.55078,0 -1,0.44922 -1,1c0,0.55078 0.44922,1 1,1c0.55078,0 1,-0.44922 1,-1c0,-0.55078 -0.44922,-1 -1,-1zM37,49c-0.55078,0 -1,0.44922 -1,1c0,0.55078 0.44922,1 1,1c0.55078,0 1,-0.44922 1,-1c0,-0.55078 -0.44922,-1 -1,-1zM41,49c-0.55078,0 -1,0.44922 -1,1c0,0.55078 0.44922,1 1,1c0.55078,0 1,-0.44922 1,-1c0,-0.55078 -0.44922,-1 -1,-1zM45,49c-0.55078,0 -1,0.44922 -1,1c0,0.55078 0.44922,1 1,1c0.55078,0 1,-0.44922 1,-1c0,-0.55078 -0.44922,-1 -1,-1zM49,49c-0.55078,0 -1,0.44922 -1,1c0,0.55078 0.44922,1 1,1c0.55078,0 1,-0.44922 1,-1c0,-0.55078 -0.44922,-1 -1,-1zM53,49c-0.55078,0 -1,0.44922 -1,1c0,0.55078 0.44922,1 1,1c0.55078,0 1,-0.44922 1,-1c0,-0.55078 -0.44922,-1 -1,-1zM57,49c-0.55078,0 -1,0.44922 -1,1c0,0.55078 0.44922,1 1,1c0.55078,0 1,-0.44922 1,-1c0,-0.55078 -0.44922,-1 -1,-1zM61,49c-0.55078,0 -1,0.44922 -1,1c0,0.55078 0.44922,1 1,1c0.55078,0 1,-0.44922 1,-1c0,-0.55078 -0.44922,-1 -1,-1zM65,49c-0.55078,0 -1,0.44922 -1,1c0,0.55078 0.44922,1 1,1c0.55078,0 1,-0.44922 1,-1c0,-0.55078 -0.44922,-1 -1,-1zM69,49c-0.55078,0 -1,0.44922 -1,1c0,0.55078 0.44922,1 1,1c0.55078,0 1,-0.44922 1,-1c0,-0.55078 -0.44922,-1 -1,-1zM45,56h8v4h-8zM12,62h10v2h-10zM40,62h18c1.11719,0 2,0.88281 2,2h-22c0,-1.11719 0.88281,-2 2,-2z"></path></g></g></svg>